<svg xmlns="http://www.w3.org/2000/svg" id="calendar_3_" width="30" height="30" viewBox="0 0 30 30">
    <defs>
        <style>
            .cls-1{fill:#8accc0}
        </style>
    </defs>
    <path id="Path_6746" d="M28.242 17.124V2.7a.879.879 0 0 0-.879-.879H22.91V.879a.879.879 0 1 0-1.758 0v.938h-3.515V.879a.879.879 0 1 0-1.758 0v.938h-3.516V.879a.879.879 0 0 0-1.758 0v.938H7.09V.879a.879.879 0 0 0-1.758 0v.938H.879A.879.879 0 0 0 0 2.7v22.91a.879.879 0 0 0 .879.879h14.637a7.907 7.907 0 1 0 12.726-9.36zM5.332 3.574v.879a.879.879 0 0 0 1.758 0v-.879h3.516v.879a.879.879 0 0 0 1.758 0v-.879h3.516v.879a.879.879 0 1 0 1.758 0v-.879h3.516v.879a.879.879 0 1 0 1.758 0v-.879h3.574V7.09H1.758V3.574zM1.758 24.727V8.848h24.726v6.668a7.9 7.9 0 0 0-11.03 2.274.874.874 0 0 0-.4-.095H13.3a.879.879 0 0 0 0 1.758h1.331a7.845 7.845 0 0 0-.4 1.758H13.3a.879.879 0 0 0 0 1.758h.928a7.832 7.832 0 0 0 .4 1.758zm20.332 3.515a6.152 6.152 0 1 1 6.152-6.152 6.159 6.159 0 0 1-6.152 6.152zm0 0" class="cls-1"/>
    <path id="Path_6747" d="M366.395 305.516h-2.637v-2.637a.879.879 0 0 0-1.758 0v3.516a.879.879 0 0 0 .879.879h3.516a.879.879 0 0 0 0-1.758zm0 0" class="cls-1" transform="translate(-340.789 -284.305)"/>
    <path id="Path_6748" d="M93.637 182h-1.758a.879.879 0 1 0 0 1.758h1.758a.879.879 0 1 0 0-1.758zm0 0" class="cls-1" transform="translate(-85.668 -171.336)"/>
    <path id="Path_6749" d="M93.637 242h-1.758a.879.879 0 1 0 0 1.758h1.758a.879.879 0 1 0 0-1.758zm0 0" class="cls-1" transform="translate(-85.668 -227.82)"/>
    <path id="Path_6750" d="M93.637 302h-1.758a.879.879 0 1 0 0 1.758h1.758a.879.879 0 1 0 0-1.758zm0 0" class="cls-1" transform="translate(-85.668 -284.305)"/>
    <path id="Path_6751" d="M212.879 183.758h1.758a.879.879 0 0 0 0-1.758h-1.758a.879.879 0 0 0 0 1.758zm0 0" class="cls-1" transform="translate(-199.578 -171.336)"/>
    <path id="Path_6752" d="M212.879 243.758h1.758a.879.879 0 1 0 0-1.758h-1.758a.879.879 0 1 0 0 1.758zm0 0" class="cls-1" transform="translate(-199.578 -227.82)"/>
    <path id="Path_6753" d="M93.637 362h-1.758a.879.879 0 1 0 0 1.758h1.758a.879.879 0 1 0 0-1.758zm0 0" class="cls-1" transform="translate(-85.668 -340.789)"/>
    <path id="Path_6754" d="M332.879 183.758h1.758a.879.879 0 1 0 0-1.758h-1.758a.879.879 0 0 0 0 1.758zm0 0" class="cls-1" transform="translate(-312.547 -171.336)"/>
</svg>
