<svg xmlns="http://www.w3.org/2000/svg" width="13.36" height="8.515" viewBox="0 0 13.36 8.515">
    <defs>
        <style>
            .cls-1{fill:#fff}
        </style>
    </defs>
    <g id="eye" transform="translate(0 -92.835)">
        <g id="Group_6938" transform="translate(0 92.835)">
            <g id="Group_6937">
                <path id="Path_6736" d="M13.275 96.833c-.119-.163-2.963-4-6.6-4s-6.476 3.834-6.6 4a.441.441 0 0 0 0 .52c.119.163 2.963 4 6.6 4s6.476-3.834 6.6-4a.44.44 0 0 0 0-.52zm-6.6 3.636C4 100.469 1.687 97.924 1 97.092c.685-.833 3-3.376 5.678-3.376s4.992 2.545 5.678 3.377c-.683.833-2.995 3.376-5.676 3.376z" class="cls-1" transform="translate(0 -92.835)"/>
            </g>
        </g>
        <g id="Group_6940" transform="translate(4.037 94.45)">
            <g id="Group_6939">
                <path id="Path_6737" d="M157.365 154.725a2.643 2.643 0 1 0 2.643 2.643 2.646 2.646 0 0 0-2.643-2.643zm0 4.4a1.762 1.762 0 1 1 1.762-1.762 1.764 1.764 0 0 1-1.762 1.766z" class="cls-1" transform="translate(-154.722 -154.725)"/>
            </g>
        </g>
    </g>
</svg>
