<svg xmlns="http://www.w3.org/2000/svg" width="58.374" height="35.446" viewBox="0 0 58.374 35.446">
  <path id="Path_6778" data-name="Path 6778" d="M-16.047,0h1.674V-11.79h4v-1.422h-9.666v1.422h4Zm8.928,0h1.674V-6.228H.711V0H2.367V-13.212H.711v5.544H-5.445v-5.544H-7.119Zm14,0H14.7V-1.422H8.559V-6.228h5V-7.65h-5v-4.14H14.5v-1.422H6.885ZM-28.557,22h1.674V15.772h6.156V22h1.656V8.788h-1.656v5.544h-6.156V8.788h-1.674Zm18.882.234c3.312,0,5.634-2.646,5.634-6.876s-2.322-6.8-5.634-6.8-5.634,2.574-5.634,6.8S-12.987,22.234-9.675,22.234Zm0-1.458c-2.376,0-3.924-2.124-3.924-5.418,0-3.312,1.548-5.346,3.924-5.346,2.358,0,3.924,2.034,3.924,5.346C-5.751,18.652-7.317,20.776-9.675,20.776ZM1.971,22H3.645V10.21h4V8.788H-2.025V10.21h4ZM10.9,22h7.812V20.578H12.573V15.772h5V14.35h-5V10.21h5.94V8.788H10.9Zm11.484,0h7.434V20.578h-5.76V8.788H22.383Z" transform="translate(28.557 13.212)" fill="#fff"/>
</svg>
