<svg xmlns="http://www.w3.org/2000/svg" width="12.345" height="12.346" viewBox="0 0 12.345 12.346">
    <g>
        <path fill="#647f85" d="M12.087 1.939L10.407.26A.88.88 0 0 0 9.781 0a.88.88 0 0 0-.626.259L.815 8.6a.566.566 0 0 0-.19.31l-.611 2.741a.57.57 0 0 0 .557.694.563.563 0 0 0 .124-.014l2.742-.611a.566.566 0 0 0 .311-.191l8.339-8.339a.886.886 0 0 0 0-1.251zm-3.976.977L9.43 4.235 4.294 9.37 2.975 8.052zM1.7 9.326l.468-.468 1.319 1.319-.469.469-1.7.378zm8.535-5.9L8.917 2.11l.864-.863L11.1 2.565z"/>
    </g>
</svg>
