<svg xmlns="http://www.w3.org/2000/svg" width="24.687" height="24.687" viewBox="0 0 24.687 24.687">
    <g>
        <g>
            <path fill="#e8f3f5" d="M24.625 21.154a.964.964 0 0 0-1.888.393 1.008 1.008 0 0 1-.2.845.98.98 0 0 1-.771.367H2.927a.98.98 0 0 1-.771-.367 1.007 1.007 0 0 1-.2-.845 10.654 10.654 0 0 1 10.132-8.437h.513a10.608 10.608 0 0 1 8.567 4.709.964.964 0 1 0 1.6-1.074 12.543 12.543 0 0 0-6.5-4.938 6.557 6.557 0 1 0-7.849 0 12.543 12.543 0 0 0-8.356 9.347 2.93 2.93 0 0 0 2.864 3.533h18.834a2.93 2.93 0 0 0 2.864-3.533zM7.715 6.557a4.629 4.629 0 1 1 4.863 4.623h-.467a4.635 4.635 0 0 1-4.396-4.623z"/>
        </g>
    </g>
</svg>
