<svg xmlns="http://www.w3.org/2000/svg" width="57" height="57" viewBox="0 0 57 57">
    <defs>
        <style>
            .cls-2{fill:#647f85}
        </style>
    </defs>
    <g id="Group_7109" opacity="0.6" transform="translate(-579 -684)">
        <circle id="Ellipse_11" cx="4.5" cy="4.5" r="4.5" class="cls-2" transform="translate(579 684)"/>
        <circle id="Ellipse_12" cx="4.5" cy="4.5" r="4.5" class="cls-2" transform="translate(595 684)"/>
        <circle id="Ellipse_13" cx="4.5" cy="4.5" r="4.5" class="cls-2" transform="translate(579 716)"/>
        <circle id="Ellipse_14" cx="4.5" cy="4.5" r="4.5" class="cls-2" transform="translate(595 716)"/>
        <circle id="Ellipse_15" cx="4.5" cy="4.5" r="4.5" class="cls-2" transform="translate(579 732)"/>
        <circle id="Ellipse_16" cx="4.5" cy="4.5" r="4.5" class="cls-2" transform="translate(595 732)"/>
        <circle id="Ellipse_17" cx="4.5" cy="4.5" r="4.5" class="cls-2" transform="translate(611 684)"/>
        <circle id="Ellipse_18" cx="4.5" cy="4.5" r="4.5" class="cls-2" transform="translate(627 684)"/>
        <circle id="Ellipse_19" cx="4.5" cy="4.5" r="4.5" class="cls-2" transform="translate(579 700)"/>
        <circle id="Ellipse_20" cx="4.5" cy="4.5" r="4.5" class="cls-2" transform="translate(595 700)"/>
        <circle id="Ellipse_21" cx="4.5" cy="4.5" r="4.5" class="cls-2" transform="translate(611 700)"/>
        <circle id="Ellipse_22" cx="4.5" cy="4.5" r="4.5" class="cls-2" transform="translate(627 700)"/>
        <circle id="Ellipse_23" cx="4.5" cy="4.5" r="4.5" class="cls-2" transform="translate(611 716)"/>
        <circle id="Ellipse_24" cx="4.5" cy="4.5" r="4.5" class="cls-2" transform="translate(627 716)"/>
        <circle id="Ellipse_25" cx="4.5" cy="4.5" r="4.5" class="cls-2" transform="translate(611 732)"/>
        <circle id="Ellipse_26" cx="4.5" cy="4.5" r="4.5" class="cls-2" transform="translate(627 732)"/>
    </g>
</svg>
